<mxfile host="app.diagrams.net" agent="Mozilla/5.0 (Windows NT 10.0; Win64; x64) AppleWebKit/537.36 (KHTML, like Gecko) Chrome/133.0.0.0 Safari/537.36" version="26.0.16">
  <diagram id="C5RBs43oDa-KdzZeNtuy" name="Class Diagram">
    <mxGraphModel dx="2961" dy="2109" grid="1" gridSize="10" guides="1" tooltips="1" connect="1" arrows="1" fold="1" page="1" pageScale="1" pageWidth="827" pageHeight="1169" math="0" shadow="0">
      <root>
        <mxCell id="WIyWlLk6GJQsqaUBKTNV-0" />
        <mxCell id="WIyWlLk6GJQsqaUBKTNV-1" parent="WIyWlLk6GJQsqaUBKTNV-0" />
        <mxCell id="-WlFVgDgevyx3NqKFWfm-8" value="" style="edgeStyle=orthogonalEdgeStyle;rounded=0;orthogonalLoop=1;jettySize=auto;html=1;" edge="1" parent="WIyWlLk6GJQsqaUBKTNV-1" source="-WlFVgDgevyx3NqKFWfm-0" target="-WlFVgDgevyx3NqKFWfm-6">
          <mxGeometry relative="1" as="geometry" />
        </mxCell>
        <mxCell id="-WlFVgDgevyx3NqKFWfm-0" value="Main" style="swimlane;fontStyle=0;childLayout=stackLayout;horizontal=1;startSize=26;fillColor=none;horizontalStack=0;resizeParent=1;resizeParentMax=0;resizeLast=0;collapsible=1;marginBottom=0;whiteSpace=wrap;html=1;" vertex="1" parent="WIyWlLk6GJQsqaUBKTNV-1">
          <mxGeometry x="330" y="30" width="140" height="52" as="geometry" />
        </mxCell>
        <mxCell id="-WlFVgDgevyx3NqKFWfm-1" value="+ main(String[] args)" style="text;strokeColor=none;fillColor=none;align=left;verticalAlign=top;spacingLeft=4;spacingRight=4;overflow=hidden;rotatable=0;points=[[0,0.5],[1,0.5]];portConstraint=eastwest;whiteSpace=wrap;html=1;" vertex="1" parent="-WlFVgDgevyx3NqKFWfm-0">
          <mxGeometry y="26" width="140" height="26" as="geometry" />
        </mxCell>
        <mxCell id="-WlFVgDgevyx3NqKFWfm-6" value="AppInterface" style="swimlane;fontStyle=0;childLayout=stackLayout;horizontal=1;startSize=26;fillColor=none;horizontalStack=0;resizeParent=1;resizeParentMax=0;resizeLast=0;collapsible=1;marginBottom=0;whiteSpace=wrap;html=1;" vertex="1" parent="WIyWlLk6GJQsqaUBKTNV-1">
          <mxGeometry x="235" y="140" width="330" height="134" as="geometry" />
        </mxCell>
        <mxCell id="-WlFVgDgevyx3NqKFWfm-9" value="- String final DB_FILEPATH;" style="text;strokeColor=light-dark(#000000,#000000);fillColor=none;align=left;verticalAlign=top;spacingLeft=4;spacingRight=4;overflow=hidden;rotatable=0;points=[[0,0.5],[1,0.5]];portConstraint=eastwest;whiteSpace=wrap;html=1;" vertex="1" parent="-WlFVgDgevyx3NqKFWfm-6">
          <mxGeometry y="26" width="330" height="34" as="geometry" />
        </mxCell>
        <mxCell id="-WlFVgDgevyx3NqKFWfm-7" value="+ AppInterface()&lt;div&gt;- JDialog adminLogin(JFrame parent frame)&lt;/div&gt;&lt;div&gt;+ JFrame run()&lt;/div&gt;" style="text;strokeColor=none;fillColor=none;align=left;verticalAlign=top;spacingLeft=4;spacingRight=4;overflow=hidden;rotatable=0;points=[[0,0.5],[1,0.5]];portConstraint=eastwest;whiteSpace=wrap;html=1;" vertex="1" parent="-WlFVgDgevyx3NqKFWfm-6">
          <mxGeometry y="60" width="330" height="74" as="geometry" />
        </mxCell>
        <mxCell id="-WlFVgDgevyx3NqKFWfm-10" value="UserInterface" style="swimlane;fontStyle=0;childLayout=stackLayout;horizontal=1;startSize=26;fillColor=none;horizontalStack=0;resizeParent=1;resizeParentMax=0;resizeLast=0;collapsible=1;marginBottom=0;whiteSpace=wrap;html=1;" vertex="1" parent="WIyWlLk6GJQsqaUBKTNV-1">
          <mxGeometry x="20" y="320" width="330" height="144" as="geometry" />
        </mxCell>
        <mxCell id="-WlFVgDgevyx3NqKFWfm-11" value="- static UserInterface instance;&lt;div&gt;- JFrame frame&lt;/div&gt;" style="text;strokeColor=light-dark(#000000,#000000);fillColor=none;align=left;verticalAlign=top;spacingLeft=4;spacingRight=4;overflow=hidden;rotatable=0;points=[[0,0.5],[1,0.5]];portConstraint=eastwest;whiteSpace=wrap;html=1;" vertex="1" parent="-WlFVgDgevyx3NqKFWfm-10">
          <mxGeometry y="26" width="330" height="44" as="geometry" />
        </mxCell>
        <mxCell id="-WlFVgDgevyx3NqKFWfm-12" value="- UserInterface()&lt;div&gt;+static UserInterface getInstance()&lt;/div&gt;&lt;div&gt;+JFrame run();&lt;/div&gt;" style="text;strokeColor=none;fillColor=none;align=left;verticalAlign=top;spacingLeft=4;spacingRight=4;overflow=hidden;rotatable=0;points=[[0,0.5],[1,0.5]];portConstraint=eastwest;whiteSpace=wrap;html=1;" vertex="1" parent="-WlFVgDgevyx3NqKFWfm-10">
          <mxGeometry y="70" width="330" height="74" as="geometry" />
        </mxCell>
        <mxCell id="-WlFVgDgevyx3NqKFWfm-14" value="AdminInterface" style="swimlane;fontStyle=0;childLayout=stackLayout;horizontal=1;startSize=26;fillColor=none;horizontalStack=0;resizeParent=1;resizeParentMax=0;resizeLast=0;collapsible=1;marginBottom=0;whiteSpace=wrap;html=1;" vertex="1" parent="WIyWlLk6GJQsqaUBKTNV-1">
          <mxGeometry x="440" y="320" width="330" height="134" as="geometry" />
        </mxCell>
        <mxCell id="-WlFVgDgevyx3NqKFWfm-15" value="- String final DB_FILEPATH;" style="text;strokeColor=light-dark(#000000,#000000);fillColor=none;align=left;verticalAlign=top;spacingLeft=4;spacingRight=4;overflow=hidden;rotatable=0;points=[[0,0.5],[1,0.5]];portConstraint=eastwest;whiteSpace=wrap;html=1;" vertex="1" parent="-WlFVgDgevyx3NqKFWfm-14">
          <mxGeometry y="26" width="330" height="34" as="geometry" />
        </mxCell>
        <mxCell id="-WlFVgDgevyx3NqKFWfm-16" value="+ AppInterface()&lt;div&gt;- JDialog adminLogin(JFrame parent frame)&lt;/div&gt;&lt;div&gt;+ JFrame run()&lt;/div&gt;" style="text;strokeColor=none;fillColor=none;align=left;verticalAlign=top;spacingLeft=4;spacingRight=4;overflow=hidden;rotatable=0;points=[[0,0.5],[1,0.5]];portConstraint=eastwest;whiteSpace=wrap;html=1;" vertex="1" parent="-WlFVgDgevyx3NqKFWfm-14">
          <mxGeometry y="60" width="330" height="74" as="geometry" />
        </mxCell>
        <mxCell id="-WlFVgDgevyx3NqKFWfm-18" value="FloorSelect" style="swimlane;fontStyle=0;childLayout=stackLayout;horizontal=1;startSize=26;fillColor=none;horizontalStack=0;resizeParent=1;resizeParentMax=0;resizeLast=0;collapsible=1;marginBottom=0;whiteSpace=wrap;html=1;" vertex="1" parent="WIyWlLk6GJQsqaUBKTNV-1">
          <mxGeometry x="-30" y="530" width="430" height="164" as="geometry" />
        </mxCell>
        <mxCell id="-WlFVgDgevyx3NqKFWfm-19" value="- static FloorSelect instance;&lt;div&gt;- RoomSelect roomSelect;&lt;/div&gt;&lt;div&gt;- AccessCheck accessCheck;&lt;/div&gt;" style="text;strokeColor=light-dark(#000000,#000000);fillColor=none;align=left;verticalAlign=top;spacingLeft=4;spacingRight=4;overflow=hidden;rotatable=0;points=[[0,0.5],[1,0.5]];portConstraint=eastwest;whiteSpace=wrap;html=1;" vertex="1" parent="-WlFVgDgevyx3NqKFWfm-18">
          <mxGeometry y="26" width="430" height="64" as="geometry" />
        </mxCell>
        <mxCell id="-WlFVgDgevyx3NqKFWfm-20" value="- FloorSelect()&lt;div&gt;+static FloorSelect getInstance()&lt;/div&gt;&lt;div&gt;+JFrame run();&lt;/div&gt;&lt;div&gt;- JButton createFloorButton(String floorName,Logs logs,JFrame frame)&lt;/div&gt;" style="text;strokeColor=none;fillColor=none;align=left;verticalAlign=top;spacingLeft=4;spacingRight=4;overflow=hidden;rotatable=0;points=[[0,0.5],[1,0.5]];portConstraint=eastwest;whiteSpace=wrap;html=1;" vertex="1" parent="-WlFVgDgevyx3NqKFWfm-18">
          <mxGeometry y="90" width="430" height="74" as="geometry" />
        </mxCell>
        <mxCell id="-WlFVgDgevyx3NqKFWfm-22" value="RoomSelect" style="swimlane;fontStyle=0;childLayout=stackLayout;horizontal=1;startSize=26;fillColor=none;horizontalStack=0;resizeParent=1;resizeParentMax=0;resizeLast=0;collapsible=1;marginBottom=0;whiteSpace=wrap;html=1;" vertex="1" parent="WIyWlLk6GJQsqaUBKTNV-1">
          <mxGeometry x="-30" y="730" width="430" height="134" as="geometry" />
        </mxCell>
        <mxCell id="-WlFVgDgevyx3NqKFWfm-23" value="- static RoomSelect instance;" style="text;strokeColor=light-dark(#000000,#000000);fillColor=none;align=left;verticalAlign=top;spacingLeft=4;spacingRight=4;overflow=hidden;rotatable=0;points=[[0,0.5],[1,0.5]];portConstraint=eastwest;whiteSpace=wrap;html=1;" vertex="1" parent="-WlFVgDgevyx3NqKFWfm-22">
          <mxGeometry y="26" width="430" height="34" as="geometry" />
        </mxCell>
        <mxCell id="-WlFVgDgevyx3NqKFWfm-24" value="&lt;div&gt;-RoomSelect()&amp;nbsp;&lt;/div&gt;+JFrame run();&lt;div&gt;+static RoomSelect getInstance()&lt;/div&gt;&lt;div&gt;+JFrame run(String floor) throw IOException&lt;/div&gt;&lt;div&gt;&lt;br&gt;&lt;/div&gt;" style="text;strokeColor=none;fillColor=none;align=left;verticalAlign=top;spacingLeft=4;spacingRight=4;overflow=hidden;rotatable=0;points=[[0,0.5],[1,0.5]];portConstraint=eastwest;whiteSpace=wrap;html=1;" vertex="1" parent="-WlFVgDgevyx3NqKFWfm-22">
          <mxGeometry y="60" width="430" height="74" as="geometry" />
        </mxCell>
        <mxCell id="-WlFVgDgevyx3NqKFWfm-30" value="Sidebar" style="swimlane;fontStyle=0;childLayout=stackLayout;horizontal=1;startSize=26;fillColor=none;horizontalStack=0;resizeParent=1;resizeParentMax=0;resizeLast=0;collapsible=1;marginBottom=0;whiteSpace=wrap;html=1;" vertex="1" parent="WIyWlLk6GJQsqaUBKTNV-1">
          <mxGeometry x="960" y="6" width="330" height="200" as="geometry" />
        </mxCell>
        <mxCell id="-WlFVgDgevyx3NqKFWfm-31" value="-JPanel sidebar&lt;div&gt;-JFrame frame&lt;/div&gt;&lt;div&gt;-JTextField searchField&lt;/div&gt;&lt;div&gt;-UserSlideBar slideBar&lt;/div&gt;" style="text;strokeColor=light-dark(#000000,#000000);fillColor=none;align=left;verticalAlign=top;spacingLeft=4;spacingRight=4;overflow=hidden;rotatable=0;points=[[0,0.5],[1,0.5]];portConstraint=eastwest;whiteSpace=wrap;html=1;" vertex="1" parent="-WlFVgDgevyx3NqKFWfm-30">
          <mxGeometry y="26" width="330" height="74" as="geometry" />
        </mxCell>
        <mxCell id="-WlFVgDgevyx3NqKFWfm-32" value="+Sidebar(JFrame frame)&lt;div&gt;+JPanel getSidebar()&lt;/div&gt;&lt;div&gt;-void setupSidebar()&lt;/div&gt;&lt;div&gt;-void serachRoom()&lt;/div&gt;&lt;div&gt;+void refreshSidebar&lt;/div&gt;" style="text;strokeColor=none;fillColor=none;align=left;verticalAlign=top;spacingLeft=4;spacingRight=4;overflow=hidden;rotatable=0;points=[[0,0.5],[1,0.5]];portConstraint=eastwest;whiteSpace=wrap;html=1;" vertex="1" parent="-WlFVgDgevyx3NqKFWfm-30">
          <mxGeometry y="100" width="330" height="100" as="geometry" />
        </mxCell>
        <mxCell id="-WlFVgDgevyx3NqKFWfm-34" value="Navbar" style="swimlane;fontStyle=0;childLayout=stackLayout;horizontal=1;startSize=26;fillColor=none;horizontalStack=0;resizeParent=1;resizeParentMax=0;resizeLast=0;collapsible=1;marginBottom=0;whiteSpace=wrap;html=1;" vertex="1" parent="WIyWlLk6GJQsqaUBKTNV-1">
          <mxGeometry x="970" y="274" width="330" height="100" as="geometry" />
        </mxCell>
        <mxCell id="-WlFVgDgevyx3NqKFWfm-36" value="+ JPanel navbar(JFrame frame)&lt;div&gt;-JButton logs(JFrame frame)&lt;/div&gt;" style="text;strokeColor=none;fillColor=none;align=left;verticalAlign=top;spacingLeft=4;spacingRight=4;overflow=hidden;rotatable=0;points=[[0,0.5],[1,0.5]];portConstraint=eastwest;whiteSpace=wrap;html=1;" vertex="1" parent="-WlFVgDgevyx3NqKFWfm-34">
          <mxGeometry y="26" width="330" height="74" as="geometry" />
        </mxCell>
        <mxCell id="-WlFVgDgevyx3NqKFWfm-120" style="edgeStyle=orthogonalEdgeStyle;rounded=0;orthogonalLoop=1;jettySize=auto;html=1;entryX=0.532;entryY=1.008;entryDx=0;entryDy=0;entryPerimeter=0;" edge="1" parent="WIyWlLk6GJQsqaUBKTNV-1" source="-WlFVgDgevyx3NqKFWfm-39" target="-WlFVgDgevyx3NqKFWfm-36">
          <mxGeometry relative="1" as="geometry">
            <mxPoint x="1135" y="630" as="targetPoint" />
            <Array as="points" />
          </mxGeometry>
        </mxCell>
        <mxCell id="-WlFVgDgevyx3NqKFWfm-39" value="LogsViewer" style="swimlane;fontStyle=0;childLayout=stackLayout;horizontal=1;startSize=26;fillColor=none;horizontalStack=0;resizeParent=1;resizeParentMax=0;resizeLast=0;collapsible=1;marginBottom=0;whiteSpace=wrap;html=1;" vertex="1" parent="WIyWlLk6GJQsqaUBKTNV-1">
          <mxGeometry x="980" y="420" width="330" height="174" as="geometry" />
        </mxCell>
        <mxCell id="-WlFVgDgevyx3NqKFWfm-40" value="- String final LOG_PATH&lt;div&gt;-JTextArea logArea&lt;/div&gt;&lt;div&gt;-static LogViewer instance&lt;/div&gt;" style="text;strokeColor=light-dark(#000000,#000000);fillColor=none;align=left;verticalAlign=top;spacingLeft=4;spacingRight=4;overflow=hidden;rotatable=0;points=[[0,0.5],[1,0.5]];portConstraint=eastwest;whiteSpace=wrap;html=1;" vertex="1" parent="-WlFVgDgevyx3NqKFWfm-39">
          <mxGeometry y="26" width="330" height="74" as="geometry" />
        </mxCell>
        <mxCell id="-WlFVgDgevyx3NqKFWfm-128" value="-LogViewr(JFrame parent)&lt;div&gt;+static LogViewer getInstance(JFrame frame)&lt;/div&gt;&lt;div&gt;-void loadLogs()&lt;/div&gt;&lt;div&gt;+List&amp;lt;String&amp;gt; getLogs()&lt;/div&gt;" style="text;strokeColor=light-dark(#000000,#000000);fillColor=none;align=left;verticalAlign=top;spacingLeft=4;spacingRight=4;overflow=hidden;rotatable=0;points=[[0,0.5],[1,0.5]];portConstraint=eastwest;whiteSpace=wrap;html=1;" vertex="1" parent="-WlFVgDgevyx3NqKFWfm-39">
          <mxGeometry y="100" width="330" height="74" as="geometry" />
        </mxCell>
        <mxCell id="-WlFVgDgevyx3NqKFWfm-44" value="UserSlideBar" style="swimlane;fontStyle=0;childLayout=stackLayout;horizontal=1;startSize=26;fillColor=none;horizontalStack=0;resizeParent=1;resizeParentMax=0;resizeLast=0;collapsible=1;marginBottom=0;whiteSpace=wrap;html=1;" vertex="1" parent="WIyWlLk6GJQsqaUBKTNV-1">
          <mxGeometry x="1470" y="-260" width="410" height="320" as="geometry" />
        </mxCell>
        <mxCell id="-WlFVgDgevyx3NqKFWfm-45" value="-Logs log;&lt;div&gt;-static final String FILE_PATH&lt;/div&gt;&lt;div&gt;-static final String BOOKED_ROOM_PATH&lt;/div&gt;&lt;div&gt;-JPanel user;&lt;/div&gt;&lt;div&gt;- List&amp;lt;JPanel&amp;gt; userCards&lt;/div&gt;" style="text;strokeColor=light-dark(#000000,#000000);fillColor=none;align=left;verticalAlign=top;spacingLeft=4;spacingRight=4;overflow=hidden;rotatable=0;points=[[0,0.5],[1,0.5]];portConstraint=eastwest;whiteSpace=wrap;html=1;" vertex="1" parent="-WlFVgDgevyx3NqKFWfm-44">
          <mxGeometry y="26" width="410" height="104" as="geometry" />
        </mxCell>
        <mxCell id="-WlFVgDgevyx3NqKFWfm-46" value="+UserSlideBar()&lt;div&gt;&lt;span style=&quot;background-color: rgb(255, 255, 255);&quot;&gt;+void filterUserCardsByRoom(String roomNumber)&lt;/span&gt;&lt;/div&gt;&lt;div&gt;&lt;span style=&quot;background-color: rgb(255, 255, 255);&quot;&gt;+JScrollPane userSlideBar()&lt;/span&gt;&lt;/div&gt;&lt;div&gt;&lt;span style=&quot;background-color: rgb(255, 255, 255);&quot;&gt;+void addUserCardsFromJson()&lt;/span&gt;&lt;/div&gt;&lt;div&gt;&lt;span style=&quot;background-color: rgb(255, 255, 255);&quot;&gt;-add userCards(List&amp;lt;FloorData&amp;gt; floorDataList)&lt;/span&gt;&lt;/div&gt;&lt;div&gt;&lt;span style=&quot;background-color: rgb(255, 255, 255);&quot;&gt;-void modifyUser(JPanel card,String name,String floor,List&amp;lt;String&amp;gt; rooms)&lt;/span&gt;&lt;/div&gt;&lt;div&gt;&lt;span style=&quot;background-color: rgb(255, 255, 255);&quot;&gt;-void updateUserInJson(String userId,String updateName, List&amp;lt;String&amp;gt; updateRooms, String updatedExpireDate)&lt;/span&gt;&lt;/div&gt;&lt;div&gt;&lt;span style=&quot;background-color: rgb(255, 255, 255);&quot;&gt;+void addUserCard(String name,String floor, List&amp;lt;String&amp;gt; rooms, String id)&lt;/span&gt;&lt;/div&gt;&lt;div&gt;&lt;span style=&quot;background-color: rgb(255, 255, 255);&quot;&gt;-void revokeUser(JPanel card, List&amp;lt;String&amp;gt; room)&lt;/span&gt;&lt;/div&gt;&lt;div&gt;&lt;span style=&quot;background-color: rgb(255, 255, 255);&quot;&gt;-void revokeUserFromJson(String userId)&lt;/span&gt;&lt;/div&gt;&lt;div&gt;&lt;span style=&quot;background-color: rgb(255, 255, 255);&quot;&gt;-void revokeRoomFromBookedRoom(List&amp;lt;String&amp;gt; roomsToRemove)&lt;/span&gt;&lt;/div&gt;" style="text;strokeColor=none;fillColor=none;align=left;verticalAlign=top;spacingLeft=4;spacingRight=4;overflow=hidden;rotatable=0;points=[[0,0.5],[1,0.5]];portConstraint=eastwest;whiteSpace=wrap;html=1;" vertex="1" parent="-WlFVgDgevyx3NqKFWfm-44">
          <mxGeometry y="130" width="410" height="190" as="geometry" />
        </mxCell>
        <mxCell id="-WlFVgDgevyx3NqKFWfm-57" value="" style="edgeStyle=orthogonalEdgeStyle;rounded=0;orthogonalLoop=1;jettySize=auto;html=1;entryX=0.005;entryY=0.06;entryDx=0;entryDy=0;entryPerimeter=0;exitX=1.008;exitY=0.119;exitDx=0;exitDy=0;exitPerimeter=0;" edge="1" parent="WIyWlLk6GJQsqaUBKTNV-1" source="-WlFVgDgevyx3NqKFWfm-48" target="-WlFVgDgevyx3NqKFWfm-44">
          <mxGeometry relative="1" as="geometry">
            <mxPoint x="80" y="-101.99999999999977" as="targetPoint" />
            <Array as="points">
              <mxPoint x="1362" y="-140" />
            </Array>
          </mxGeometry>
        </mxCell>
        <mxCell id="-WlFVgDgevyx3NqKFWfm-48" value="Logs" style="swimlane;fontStyle=1;align=center;verticalAlign=top;childLayout=stackLayout;horizontal=1;startSize=26;horizontalStack=0;resizeParent=1;resizeParentMax=0;resizeLast=0;collapsible=1;marginBottom=0;whiteSpace=wrap;html=1;" vertex="1" parent="WIyWlLk6GJQsqaUBKTNV-1">
          <mxGeometry x="-400" y="-160" width="400" height="160" as="geometry" />
        </mxCell>
        <mxCell id="-WlFVgDgevyx3NqKFWfm-49" value="- static Logs instance;&lt;div&gt;-final String LOG_PATH;&lt;/div&gt;" style="text;strokeColor=none;fillColor=none;align=left;verticalAlign=top;spacingLeft=4;spacingRight=4;overflow=hidden;rotatable=0;points=[[0,0.5],[1,0.5]];portConstraint=eastwest;whiteSpace=wrap;html=1;" vertex="1" parent="-WlFVgDgevyx3NqKFWfm-48">
          <mxGeometry y="26" width="400" height="44" as="geometry" />
        </mxCell>
        <mxCell id="-WlFVgDgevyx3NqKFWfm-50" value="" style="line;strokeWidth=1;fillColor=none;align=left;verticalAlign=middle;spacingTop=-1;spacingLeft=3;spacingRight=3;rotatable=0;labelPosition=right;points=[];portConstraint=eastwest;strokeColor=inherit;" vertex="1" parent="-WlFVgDgevyx3NqKFWfm-48">
          <mxGeometry y="70" width="400" height="8" as="geometry" />
        </mxCell>
        <mxCell id="-WlFVgDgevyx3NqKFWfm-51" value="+static getInstance()&lt;div&gt;-Logs()&lt;/div&gt;&lt;div&gt;+addToLog(String position, String operator, String userID, String status)&lt;/div&gt;" style="text;strokeColor=none;fillColor=none;align=left;verticalAlign=top;spacingLeft=4;spacingRight=4;overflow=hidden;rotatable=0;points=[[0,0.5],[1,0.5]];portConstraint=eastwest;whiteSpace=wrap;html=1;" vertex="1" parent="-WlFVgDgevyx3NqKFWfm-48">
          <mxGeometry y="78" width="400" height="82" as="geometry" />
        </mxCell>
        <mxCell id="-WlFVgDgevyx3NqKFWfm-58" value="" style="endArrow=classic;html=1;rounded=0;exitX=0.498;exitY=1.047;exitDx=0;exitDy=0;exitPerimeter=0;entryX=0.001;entryY=0.111;entryDx=0;entryDy=0;entryPerimeter=0;" edge="1" parent="WIyWlLk6GJQsqaUBKTNV-1" source="-WlFVgDgevyx3NqKFWfm-51" target="-WlFVgDgevyx3NqKFWfm-18">
          <mxGeometry width="50" height="50" relative="1" as="geometry">
            <mxPoint x="-50" y="340" as="sourcePoint" />
            <mxPoint y="290" as="targetPoint" />
            <Array as="points">
              <mxPoint x="-201" y="548" />
            </Array>
          </mxGeometry>
        </mxCell>
        <mxCell id="-WlFVgDgevyx3NqKFWfm-59" value="" style="endArrow=classic;html=1;rounded=0;exitX=0.498;exitY=1.012;exitDx=0;exitDy=0;exitPerimeter=0;entryX=0.001;entryY=0.135;entryDx=0;entryDy=0;entryPerimeter=0;" edge="1" parent="WIyWlLk6GJQsqaUBKTNV-1" source="-WlFVgDgevyx3NqKFWfm-51" target="-WlFVgDgevyx3NqKFWfm-22">
          <mxGeometry width="50" height="50" relative="1" as="geometry">
            <mxPoint x="-201" y="206" as="sourcePoint" />
            <mxPoint x="-30" y="750" as="targetPoint" />
            <Array as="points">
              <mxPoint x="-201" y="750" />
            </Array>
          </mxGeometry>
        </mxCell>
        <mxCell id="-WlFVgDgevyx3NqKFWfm-60" value="" style="endArrow=classic;html=1;rounded=0;exitX=0.498;exitY=1.012;exitDx=0;exitDy=0;exitPerimeter=0;entryX=0.001;entryY=0.136;entryDx=0;entryDy=0;entryPerimeter=0;" edge="1" parent="WIyWlLk6GJQsqaUBKTNV-1" source="-WlFVgDgevyx3NqKFWfm-51" target="-WlFVgDgevyx3NqKFWfm-10">
          <mxGeometry width="50" height="50" relative="1" as="geometry">
            <mxPoint x="-191" y="14" as="sourcePoint" />
            <mxPoint x="-20" y="558" as="targetPoint" />
            <Array as="points">
              <mxPoint x="-200" y="340" />
            </Array>
          </mxGeometry>
        </mxCell>
        <mxCell id="-WlFVgDgevyx3NqKFWfm-61" value="" style="endArrow=classic;html=1;rounded=0;exitX=0.506;exitY=0.997;exitDx=0;exitDy=0;exitPerimeter=0;entryX=-0.01;entryY=0.167;entryDx=0;entryDy=0;entryPerimeter=0;" edge="1" parent="WIyWlLk6GJQsqaUBKTNV-1" source="-WlFVgDgevyx3NqKFWfm-51" target="-WlFVgDgevyx3NqKFWfm-6">
          <mxGeometry width="50" height="50" relative="1" as="geometry">
            <mxPoint x="-191" y="6" as="sourcePoint" />
            <mxPoint x="30" y="345" as="targetPoint" />
            <Array as="points">
              <mxPoint x="-197" y="160" />
            </Array>
          </mxGeometry>
        </mxCell>
        <mxCell id="-WlFVgDgevyx3NqKFWfm-63" value="AddLayout" style="swimlane;fontStyle=0;childLayout=stackLayout;horizontal=1;startSize=26;fillColor=none;horizontalStack=0;resizeParent=1;resizeParentMax=0;resizeLast=0;collapsible=1;marginBottom=0;whiteSpace=wrap;html=1;" vertex="1" parent="WIyWlLk6GJQsqaUBKTNV-1">
          <mxGeometry x="1470" y="140" width="330" height="150" as="geometry" />
        </mxCell>
        <mxCell id="-WlFVgDgevyx3NqKFWfm-64" value="-static AddLayout instance&lt;div&gt;-final String DB_FILEPATH;&lt;/div&gt;&lt;div&gt;-final String BR_FILEPATH;&lt;/div&gt;" style="text;strokeColor=light-dark(#000000,#000000);fillColor=none;align=left;verticalAlign=top;spacingLeft=4;spacingRight=4;overflow=hidden;rotatable=0;points=[[0,0.5],[1,0.5]];portConstraint=eastwest;whiteSpace=wrap;html=1;" vertex="1" parent="-WlFVgDgevyx3NqKFWfm-63">
          <mxGeometry y="26" width="330" height="64" as="geometry" />
        </mxCell>
        <mxCell id="-WlFVgDgevyx3NqKFWfm-65" value="+static AddLayout getInstance()&lt;div&gt;-AddLayout&lt;/div&gt;&lt;div&gt;+JDialog add_display;&lt;/div&gt;" style="text;strokeColor=none;fillColor=none;align=left;verticalAlign=top;spacingLeft=4;spacingRight=4;overflow=hidden;rotatable=0;points=[[0,0.5],[1,0.5]];portConstraint=eastwest;whiteSpace=wrap;html=1;" vertex="1" parent="-WlFVgDgevyx3NqKFWfm-63">
          <mxGeometry y="90" width="330" height="60" as="geometry" />
        </mxCell>
        <mxCell id="-WlFVgDgevyx3NqKFWfm-73" value="" style="endArrow=classic;html=1;rounded=0;exitX=0.552;exitY=1.005;exitDx=0;exitDy=0;exitPerimeter=0;entryX=1;entryY=0.5;entryDx=0;entryDy=0;" edge="1" parent="WIyWlLk6GJQsqaUBKTNV-1" source="-WlFVgDgevyx3NqKFWfm-7" target="-WlFVgDgevyx3NqKFWfm-23">
          <mxGeometry width="50" height="50" relative="1" as="geometry">
            <mxPoint x="680" y="550" as="sourcePoint" />
            <mxPoint x="730" y="500" as="targetPoint" />
            <Array as="points">
              <mxPoint x="420" y="773" />
            </Array>
          </mxGeometry>
        </mxCell>
        <mxCell id="-WlFVgDgevyx3NqKFWfm-74" value="BookedRoom" style="swimlane;fontStyle=1;align=center;verticalAlign=top;childLayout=stackLayout;horizontal=1;startSize=26;horizontalStack=0;resizeParent=1;resizeParentMax=0;resizeLast=0;collapsible=1;marginBottom=0;whiteSpace=wrap;html=1;" vertex="1" parent="WIyWlLk6GJQsqaUBKTNV-1">
          <mxGeometry x="1930" y="-260" width="470" height="360" as="geometry" />
        </mxCell>
        <mxCell id="-WlFVgDgevyx3NqKFWfm-75" value="-String[] data&lt;div&gt;-int j&lt;/div&gt;&lt;div&gt;-JSONArray bookedRooms&lt;/div&gt;&lt;div&gt;-String floor&lt;/div&gt;&lt;div&gt;-int roomCount&lt;/div&gt;&lt;div&gt;-RoomHandler roomHandler;&lt;/div&gt;&lt;div&gt;-final String DB_FILEPATH&lt;/div&gt;&lt;div&gt;-final String BR_FILEPATH&lt;/div&gt;" style="text;strokeColor=none;fillColor=none;align=left;verticalAlign=top;spacingLeft=4;spacingRight=4;overflow=hidden;rotatable=0;points=[[0,0.5],[1,0.5]];portConstraint=eastwest;whiteSpace=wrap;html=1;" vertex="1" parent="-WlFVgDgevyx3NqKFWfm-74">
          <mxGeometry y="26" width="470" height="134" as="geometry" />
        </mxCell>
        <mxCell id="-WlFVgDgevyx3NqKFWfm-76" value="" style="line;strokeWidth=1;fillColor=none;align=left;verticalAlign=middle;spacingTop=-1;spacingLeft=3;spacingRight=3;rotatable=0;labelPosition=right;points=[];portConstraint=eastwest;strokeColor=inherit;" vertex="1" parent="-WlFVgDgevyx3NqKFWfm-74">
          <mxGeometry y="160" width="470" height="8" as="geometry" />
        </mxCell>
        <mxCell id="-WlFVgDgevyx3NqKFWfm-77" value="+ BookedRoom()&lt;div&gt;+ BookedRoom(String floor)&lt;/div&gt;&lt;div&gt;- void loadBookedRooms(String floor)&lt;/div&gt;&lt;div&gt;- void setRoomHandler()&lt;/div&gt;&lt;div&gt;+ JPanel getTable(String floor)&lt;/div&gt;&lt;div&gt;- void addSelectedRoom(String room)&lt;/div&gt;&lt;div&gt;-void removeSelectedRoom(String room)&lt;/div&gt;&lt;div&gt;+ String[] getData();&lt;/div&gt;&lt;div&gt;+ void addData(String name, String[] room, String floor, int days, String FILE_PATH)&lt;/div&gt;&lt;div&gt;+ void removeExpiredData(String filePath)&lt;/div&gt;&lt;div&gt;-&amp;nbsp; void removeRoomFromBookedRooms(JSONObject bookedRoomJson, String room)&lt;/div&gt;" style="text;strokeColor=none;fillColor=none;align=left;verticalAlign=top;spacingLeft=4;spacingRight=4;overflow=hidden;rotatable=0;points=[[0,0.5],[1,0.5]];portConstraint=eastwest;whiteSpace=wrap;html=1;" vertex="1" parent="-WlFVgDgevyx3NqKFWfm-74">
          <mxGeometry y="168" width="470" height="192" as="geometry" />
        </mxCell>
        <mxCell id="-WlFVgDgevyx3NqKFWfm-78" value="" style="endArrow=classic;html=1;rounded=0;exitX=0.51;exitY=0.999;exitDx=0;exitDy=0;exitPerimeter=0;entryX=0.994;entryY=0.301;entryDx=0;entryDy=0;entryPerimeter=0;" edge="1" parent="WIyWlLk6GJQsqaUBKTNV-1" source="-WlFVgDgevyx3NqKFWfm-77" target="-WlFVgDgevyx3NqKFWfm-65">
          <mxGeometry width="50" height="50" relative="1" as="geometry">
            <mxPoint x="1970" y="130" as="sourcePoint" />
            <mxPoint x="2020" y="80" as="targetPoint" />
            <Array as="points">
              <mxPoint x="2170" y="250" />
            </Array>
          </mxGeometry>
        </mxCell>
        <mxCell id="-WlFVgDgevyx3NqKFWfm-79" value="" style="endArrow=classic;html=1;rounded=0;entryX=0.004;entryY=0.082;entryDx=0;entryDy=0;entryPerimeter=0;" edge="1" parent="WIyWlLk6GJQsqaUBKTNV-1" target="-WlFVgDgevyx3NqKFWfm-63">
          <mxGeometry width="50" height="50" relative="1" as="geometry">
            <mxPoint x="1320" y="-140" as="sourcePoint" />
            <mxPoint x="1250" y="80" as="targetPoint" />
            <Array as="points">
              <mxPoint x="1320" y="152" />
            </Array>
          </mxGeometry>
        </mxCell>
        <mxCell id="-WlFVgDgevyx3NqKFWfm-80" value="" style="endArrow=classic;html=1;rounded=0;" edge="1" parent="WIyWlLk6GJQsqaUBKTNV-1">
          <mxGeometry width="50" height="50" relative="1" as="geometry">
            <mxPoint x="1360" y="-240" as="sourcePoint" />
            <mxPoint x="2120" y="-257" as="targetPoint" />
            <Array as="points">
              <mxPoint x="1360" y="-300" />
              <mxPoint x="2120" y="-300" />
            </Array>
          </mxGeometry>
        </mxCell>
        <mxCell id="-WlFVgDgevyx3NqKFWfm-105" value="" style="edgeStyle=orthogonalEdgeStyle;rounded=0;orthogonalLoop=1;jettySize=auto;html=1;" edge="1" parent="WIyWlLk6GJQsqaUBKTNV-1" source="-WlFVgDgevyx3NqKFWfm-96" target="-WlFVgDgevyx3NqKFWfm-101">
          <mxGeometry relative="1" as="geometry" />
        </mxCell>
        <mxCell id="-WlFVgDgevyx3NqKFWfm-96" value="&amp;lt;&amp;lt;Interface&amp;gt;&amp;gt;&lt;div&gt;RoomHandler&lt;/div&gt;" style="swimlane;fontStyle=0;childLayout=stackLayout;horizontal=1;startSize=40;fillColor=none;horizontalStack=0;resizeParent=1;resizeParentMax=0;resizeLast=0;collapsible=1;marginBottom=0;whiteSpace=wrap;html=1;" vertex="1" parent="WIyWlLk6GJQsqaUBKTNV-1">
          <mxGeometry x="2550" y="-170" width="190" height="118" as="geometry" />
        </mxCell>
        <mxCell id="-WlFVgDgevyx3NqKFWfm-97" value="boolean(String room)" style="text;strokeColor=none;fillColor=none;align=left;verticalAlign=top;spacingLeft=4;spacingRight=4;overflow=hidden;rotatable=0;points=[[0,0.5],[1,0.5]];portConstraint=eastwest;whiteSpace=wrap;html=1;" vertex="1" parent="-WlFVgDgevyx3NqKFWfm-96">
          <mxGeometry y="40" width="190" height="26" as="geometry" />
        </mxCell>
        <mxCell id="-WlFVgDgevyx3NqKFWfm-98" value="String getPrefix(String floor)" style="text;strokeColor=none;fillColor=none;align=left;verticalAlign=top;spacingLeft=4;spacingRight=4;overflow=hidden;rotatable=0;points=[[0,0.5],[1,0.5]];portConstraint=eastwest;whiteSpace=wrap;html=1;" vertex="1" parent="-WlFVgDgevyx3NqKFWfm-96">
          <mxGeometry y="66" width="190" height="26" as="geometry" />
        </mxCell>
        <mxCell id="-WlFVgDgevyx3NqKFWfm-99" value="int getRoomNumber(String floor)" style="text;strokeColor=none;fillColor=none;align=left;verticalAlign=top;spacingLeft=4;spacingRight=4;overflow=hidden;rotatable=0;points=[[0,0.5],[1,0.5]];portConstraint=eastwest;whiteSpace=wrap;html=1;" vertex="1" parent="-WlFVgDgevyx3NqKFWfm-96">
          <mxGeometry y="92" width="190" height="26" as="geometry" />
        </mxCell>
        <mxCell id="-WlFVgDgevyx3NqKFWfm-100" value="" style="endArrow=classic;html=1;rounded=0;entryX=0.998;entryY=0.545;entryDx=0;entryDy=0;entryPerimeter=0;exitX=0;exitY=0.085;exitDx=0;exitDy=0;exitPerimeter=0;" edge="1" parent="WIyWlLk6GJQsqaUBKTNV-1" source="-WlFVgDgevyx3NqKFWfm-96" target="-WlFVgDgevyx3NqKFWfm-75">
          <mxGeometry width="50" height="50" relative="1" as="geometry">
            <mxPoint x="2420" y="-50" as="sourcePoint" />
            <mxPoint x="2470" y="-100" as="targetPoint" />
          </mxGeometry>
        </mxCell>
        <mxCell id="-WlFVgDgevyx3NqKFWfm-101" value="HighFloorRoomHandler" style="swimlane;fontStyle=0;childLayout=stackLayout;horizontal=1;startSize=40;fillColor=none;horizontalStack=0;resizeParent=1;resizeParentMax=0;resizeLast=0;collapsible=1;marginBottom=0;whiteSpace=wrap;html=1;" vertex="1" parent="WIyWlLk6GJQsqaUBKTNV-1">
          <mxGeometry x="2870" y="-278" width="190" height="144" as="geometry" />
        </mxCell>
        <mxCell id="-WlFVgDgevyx3NqKFWfm-106" value="-JSONArray bookedRooms" style="text;strokeColor=light-dark(#000000,#000000);fillColor=none;align=left;verticalAlign=top;spacingLeft=4;spacingRight=4;overflow=hidden;rotatable=0;points=[[0,0.5],[1,0.5]];portConstraint=eastwest;whiteSpace=wrap;html=1;" vertex="1" parent="-WlFVgDgevyx3NqKFWfm-101">
          <mxGeometry y="40" width="190" height="26" as="geometry" />
        </mxCell>
        <mxCell id="-WlFVgDgevyx3NqKFWfm-102" value="boolean(String room)" style="text;strokeColor=none;fillColor=none;align=left;verticalAlign=top;spacingLeft=4;spacingRight=4;overflow=hidden;rotatable=0;points=[[0,0.5],[1,0.5]];portConstraint=eastwest;whiteSpace=wrap;html=1;" vertex="1" parent="-WlFVgDgevyx3NqKFWfm-101">
          <mxGeometry y="66" width="190" height="26" as="geometry" />
        </mxCell>
        <mxCell id="-WlFVgDgevyx3NqKFWfm-103" value="String getPrefix(String floor)" style="text;strokeColor=none;fillColor=none;align=left;verticalAlign=top;spacingLeft=4;spacingRight=4;overflow=hidden;rotatable=0;points=[[0,0.5],[1,0.5]];portConstraint=eastwest;whiteSpace=wrap;html=1;" vertex="1" parent="-WlFVgDgevyx3NqKFWfm-101">
          <mxGeometry y="92" width="190" height="26" as="geometry" />
        </mxCell>
        <mxCell id="-WlFVgDgevyx3NqKFWfm-104" value="int getRoomNumber(String floor)" style="text;strokeColor=none;fillColor=none;align=left;verticalAlign=top;spacingLeft=4;spacingRight=4;overflow=hidden;rotatable=0;points=[[0,0.5],[1,0.5]];portConstraint=eastwest;whiteSpace=wrap;html=1;" vertex="1" parent="-WlFVgDgevyx3NqKFWfm-101">
          <mxGeometry y="118" width="190" height="26" as="geometry" />
        </mxCell>
        <mxCell id="-WlFVgDgevyx3NqKFWfm-107" value="MidiumFloorRoomHandler" style="swimlane;fontStyle=0;childLayout=stackLayout;horizontal=1;startSize=40;fillColor=none;horizontalStack=0;resizeParent=1;resizeParentMax=0;resizeLast=0;collapsible=1;marginBottom=0;whiteSpace=wrap;html=1;" vertex="1" parent="WIyWlLk6GJQsqaUBKTNV-1">
          <mxGeometry x="2870" y="-100" width="190" height="144" as="geometry" />
        </mxCell>
        <mxCell id="-WlFVgDgevyx3NqKFWfm-108" value="-JSONArray bookedRooms" style="text;strokeColor=light-dark(#000000,#000000);fillColor=none;align=left;verticalAlign=top;spacingLeft=4;spacingRight=4;overflow=hidden;rotatable=0;points=[[0,0.5],[1,0.5]];portConstraint=eastwest;whiteSpace=wrap;html=1;" vertex="1" parent="-WlFVgDgevyx3NqKFWfm-107">
          <mxGeometry y="40" width="190" height="26" as="geometry" />
        </mxCell>
        <mxCell id="-WlFVgDgevyx3NqKFWfm-109" value="boolean(String room)" style="text;strokeColor=none;fillColor=none;align=left;verticalAlign=top;spacingLeft=4;spacingRight=4;overflow=hidden;rotatable=0;points=[[0,0.5],[1,0.5]];portConstraint=eastwest;whiteSpace=wrap;html=1;" vertex="1" parent="-WlFVgDgevyx3NqKFWfm-107">
          <mxGeometry y="66" width="190" height="26" as="geometry" />
        </mxCell>
        <mxCell id="-WlFVgDgevyx3NqKFWfm-110" value="String getPrefix(String floor)" style="text;strokeColor=none;fillColor=none;align=left;verticalAlign=top;spacingLeft=4;spacingRight=4;overflow=hidden;rotatable=0;points=[[0,0.5],[1,0.5]];portConstraint=eastwest;whiteSpace=wrap;html=1;" vertex="1" parent="-WlFVgDgevyx3NqKFWfm-107">
          <mxGeometry y="92" width="190" height="26" as="geometry" />
        </mxCell>
        <mxCell id="-WlFVgDgevyx3NqKFWfm-111" value="int getRoomNumber(String floor)" style="text;strokeColor=none;fillColor=none;align=left;verticalAlign=top;spacingLeft=4;spacingRight=4;overflow=hidden;rotatable=0;points=[[0,0.5],[1,0.5]];portConstraint=eastwest;whiteSpace=wrap;html=1;" vertex="1" parent="-WlFVgDgevyx3NqKFWfm-107">
          <mxGeometry y="118" width="190" height="26" as="geometry" />
        </mxCell>
        <mxCell id="-WlFVgDgevyx3NqKFWfm-112" style="edgeStyle=orthogonalEdgeStyle;rounded=0;orthogonalLoop=1;jettySize=auto;html=1;entryX=0.013;entryY=0.16;entryDx=0;entryDy=0;entryPerimeter=0;" edge="1" parent="WIyWlLk6GJQsqaUBKTNV-1" source="-WlFVgDgevyx3NqKFWfm-96" target="-WlFVgDgevyx3NqKFWfm-107">
          <mxGeometry relative="1" as="geometry" />
        </mxCell>
        <mxCell id="-WlFVgDgevyx3NqKFWfm-113" value="LowFloorRoomHandler" style="swimlane;fontStyle=0;childLayout=stackLayout;horizontal=1;startSize=40;fillColor=none;horizontalStack=0;resizeParent=1;resizeParentMax=0;resizeLast=0;collapsible=1;marginBottom=0;whiteSpace=wrap;html=1;" vertex="1" parent="WIyWlLk6GJQsqaUBKTNV-1">
          <mxGeometry x="2870" y="70" width="190" height="144" as="geometry" />
        </mxCell>
        <mxCell id="-WlFVgDgevyx3NqKFWfm-114" value="-JSONArray bookedRooms" style="text;strokeColor=light-dark(#000000,#000000);fillColor=none;align=left;verticalAlign=top;spacingLeft=4;spacingRight=4;overflow=hidden;rotatable=0;points=[[0,0.5],[1,0.5]];portConstraint=eastwest;whiteSpace=wrap;html=1;" vertex="1" parent="-WlFVgDgevyx3NqKFWfm-113">
          <mxGeometry y="40" width="190" height="26" as="geometry" />
        </mxCell>
        <mxCell id="-WlFVgDgevyx3NqKFWfm-115" value="boolean(String room)" style="text;strokeColor=none;fillColor=none;align=left;verticalAlign=top;spacingLeft=4;spacingRight=4;overflow=hidden;rotatable=0;points=[[0,0.5],[1,0.5]];portConstraint=eastwest;whiteSpace=wrap;html=1;" vertex="1" parent="-WlFVgDgevyx3NqKFWfm-113">
          <mxGeometry y="66" width="190" height="26" as="geometry" />
        </mxCell>
        <mxCell id="-WlFVgDgevyx3NqKFWfm-116" value="String getPrefix(String floor)" style="text;strokeColor=none;fillColor=none;align=left;verticalAlign=top;spacingLeft=4;spacingRight=4;overflow=hidden;rotatable=0;points=[[0,0.5],[1,0.5]];portConstraint=eastwest;whiteSpace=wrap;html=1;" vertex="1" parent="-WlFVgDgevyx3NqKFWfm-113">
          <mxGeometry y="92" width="190" height="26" as="geometry" />
        </mxCell>
        <mxCell id="-WlFVgDgevyx3NqKFWfm-117" value="int getRoomNumber(String floor)" style="text;strokeColor=none;fillColor=none;align=left;verticalAlign=top;spacingLeft=4;spacingRight=4;overflow=hidden;rotatable=0;points=[[0,0.5],[1,0.5]];portConstraint=eastwest;whiteSpace=wrap;html=1;" vertex="1" parent="-WlFVgDgevyx3NqKFWfm-113">
          <mxGeometry y="118" width="190" height="26" as="geometry" />
        </mxCell>
        <mxCell id="-WlFVgDgevyx3NqKFWfm-118" style="edgeStyle=orthogonalEdgeStyle;rounded=0;orthogonalLoop=1;jettySize=auto;html=1;entryX=0.004;entryY=0.148;entryDx=0;entryDy=0;entryPerimeter=0;" edge="1" parent="WIyWlLk6GJQsqaUBKTNV-1" source="-WlFVgDgevyx3NqKFWfm-96" target="-WlFVgDgevyx3NqKFWfm-113">
          <mxGeometry relative="1" as="geometry" />
        </mxCell>
        <mxCell id="-WlFVgDgevyx3NqKFWfm-121" style="edgeStyle=orthogonalEdgeStyle;rounded=0;orthogonalLoop=1;jettySize=auto;html=1;entryX=0.503;entryY=1.014;entryDx=0;entryDy=0;entryPerimeter=0;" edge="1" parent="WIyWlLk6GJQsqaUBKTNV-1" source="-WlFVgDgevyx3NqKFWfm-18" target="-WlFVgDgevyx3NqKFWfm-12">
          <mxGeometry relative="1" as="geometry" />
        </mxCell>
        <mxCell id="-WlFVgDgevyx3NqKFWfm-122" style="edgeStyle=orthogonalEdgeStyle;rounded=0;orthogonalLoop=1;jettySize=auto;html=1;entryX=0.5;entryY=1.014;entryDx=0;entryDy=0;entryPerimeter=0;" edge="1" parent="WIyWlLk6GJQsqaUBKTNV-1" source="-WlFVgDgevyx3NqKFWfm-22" target="-WlFVgDgevyx3NqKFWfm-20">
          <mxGeometry relative="1" as="geometry" />
        </mxCell>
        <mxCell id="-WlFVgDgevyx3NqKFWfm-123" style="edgeStyle=orthogonalEdgeStyle;rounded=0;orthogonalLoop=1;jettySize=auto;html=1;entryX=0.48;entryY=1.003;entryDx=0;entryDy=0;entryPerimeter=0;" edge="1" parent="WIyWlLk6GJQsqaUBKTNV-1" source="-WlFVgDgevyx3NqKFWfm-10" target="-WlFVgDgevyx3NqKFWfm-7">
          <mxGeometry relative="1" as="geometry" />
        </mxCell>
        <mxCell id="-WlFVgDgevyx3NqKFWfm-124" style="edgeStyle=orthogonalEdgeStyle;rounded=0;orthogonalLoop=1;jettySize=auto;html=1;entryX=0.632;entryY=1.003;entryDx=0;entryDy=0;entryPerimeter=0;" edge="1" parent="WIyWlLk6GJQsqaUBKTNV-1" source="-WlFVgDgevyx3NqKFWfm-14" target="-WlFVgDgevyx3NqKFWfm-7">
          <mxGeometry relative="1" as="geometry" />
        </mxCell>
        <mxCell id="-WlFVgDgevyx3NqKFWfm-129" value="PasswordGenerator" style="swimlane;fontStyle=1;align=center;verticalAlign=top;childLayout=stackLayout;horizontal=1;startSize=26;horizontalStack=0;resizeParent=1;resizeParentMax=0;resizeLast=0;collapsible=1;marginBottom=0;whiteSpace=wrap;html=1;" vertex="1" parent="WIyWlLk6GJQsqaUBKTNV-1">
          <mxGeometry x="2400" y="160" width="360" height="134" as="geometry" />
        </mxCell>
        <mxCell id="-WlFVgDgevyx3NqKFWfm-130" value="-static final String LOWERCASE&lt;div&gt;-static final String UPEPRCASE&lt;/div&gt;&lt;div&gt;-static final String DIGITS&lt;/div&gt;&lt;div&gt;-static final String ALL_CHARACTERS&lt;/div&gt;" style="text;strokeColor=none;fillColor=none;align=left;verticalAlign=top;spacingLeft=4;spacingRight=4;overflow=hidden;rotatable=0;points=[[0,0.5],[1,0.5]];portConstraint=eastwest;whiteSpace=wrap;html=1;" vertex="1" parent="-WlFVgDgevyx3NqKFWfm-129">
          <mxGeometry y="26" width="360" height="74" as="geometry" />
        </mxCell>
        <mxCell id="-WlFVgDgevyx3NqKFWfm-131" value="" style="line;strokeWidth=1;fillColor=none;align=left;verticalAlign=middle;spacingTop=-1;spacingLeft=3;spacingRight=3;rotatable=0;labelPosition=right;points=[];portConstraint=eastwest;strokeColor=inherit;" vertex="1" parent="-WlFVgDgevyx3NqKFWfm-129">
          <mxGeometry y="100" width="360" height="8" as="geometry" />
        </mxCell>
        <mxCell id="-WlFVgDgevyx3NqKFWfm-132" value="+static String generatorPassword(int length)" style="text;strokeColor=none;fillColor=none;align=left;verticalAlign=top;spacingLeft=4;spacingRight=4;overflow=hidden;rotatable=0;points=[[0,0.5],[1,0.5]];portConstraint=eastwest;whiteSpace=wrap;html=1;" vertex="1" parent="-WlFVgDgevyx3NqKFWfm-129">
          <mxGeometry y="108" width="360" height="26" as="geometry" />
        </mxCell>
        <mxCell id="-WlFVgDgevyx3NqKFWfm-133" style="edgeStyle=orthogonalEdgeStyle;rounded=0;orthogonalLoop=1;jettySize=auto;html=1;entryX=0.685;entryY=1.001;entryDx=0;entryDy=0;entryPerimeter=0;exitX=0;exitY=0.5;exitDx=0;exitDy=0;" edge="1" parent="WIyWlLk6GJQsqaUBKTNV-1" source="-WlFVgDgevyx3NqKFWfm-130" target="-WlFVgDgevyx3NqKFWfm-77">
          <mxGeometry relative="1" as="geometry" />
        </mxCell>
        <mxCell id="-WlFVgDgevyx3NqKFWfm-138" style="edgeStyle=orthogonalEdgeStyle;rounded=0;orthogonalLoop=1;jettySize=auto;html=1;" edge="1" parent="WIyWlLk6GJQsqaUBKTNV-1" source="-WlFVgDgevyx3NqKFWfm-134" target="-WlFVgDgevyx3NqKFWfm-12">
          <mxGeometry relative="1" as="geometry">
            <Array as="points">
              <mxPoint x="-280" y="550" />
              <mxPoint x="-280" y="427" />
            </Array>
          </mxGeometry>
        </mxCell>
        <mxCell id="-WlFVgDgevyx3NqKFWfm-139" style="edgeStyle=orthogonalEdgeStyle;rounded=0;orthogonalLoop=1;jettySize=auto;html=1;entryX=0;entryY=0.5;entryDx=0;entryDy=0;" edge="1" parent="WIyWlLk6GJQsqaUBKTNV-1" source="-WlFVgDgevyx3NqKFWfm-134" target="-WlFVgDgevyx3NqKFWfm-20">
          <mxGeometry relative="1" as="geometry">
            <Array as="points">
              <mxPoint x="-280" y="550" />
              <mxPoint x="-280" y="657" />
            </Array>
          </mxGeometry>
        </mxCell>
        <mxCell id="-WlFVgDgevyx3NqKFWfm-134" value="AccessChecker" style="swimlane;fontStyle=1;align=center;verticalAlign=top;childLayout=stackLayout;horizontal=1;startSize=26;horizontalStack=0;resizeParent=1;resizeParentMax=0;resizeLast=0;collapsible=1;marginBottom=0;whiteSpace=wrap;html=1;" vertex="1" parent="WIyWlLk6GJQsqaUBKTNV-1">
          <mxGeometry x="-700" y="430" width="330" height="240" as="geometry" />
        </mxCell>
        <mxCell id="-WlFVgDgevyx3NqKFWfm-135" value="-static AccessChecker instance&lt;div&gt;-final String FILE_PATH&lt;/div&gt;&lt;div&gt;-static JSONArray&lt;/div&gt;&lt;div&gt;-static int userID&lt;/div&gt;" style="text;strokeColor=none;fillColor=none;align=left;verticalAlign=top;spacingLeft=4;spacingRight=4;overflow=hidden;rotatable=0;points=[[0,0.5],[1,0.5]];portConstraint=eastwest;whiteSpace=wrap;html=1;" vertex="1" parent="-WlFVgDgevyx3NqKFWfm-134">
          <mxGeometry y="26" width="330" height="74" as="geometry" />
        </mxCell>
        <mxCell id="-WlFVgDgevyx3NqKFWfm-136" value="" style="line;strokeWidth=1;fillColor=none;align=left;verticalAlign=middle;spacingTop=-1;spacingLeft=3;spacingRight=3;rotatable=0;labelPosition=right;points=[];portConstraint=eastwest;strokeColor=inherit;" vertex="1" parent="-WlFVgDgevyx3NqKFWfm-134">
          <mxGeometry y="100" width="330" height="8" as="geometry" />
        </mxCell>
        <mxCell id="-WlFVgDgevyx3NqKFWfm-137" value="-AccessChecker() thorws IOException&lt;div&gt;+static AccessChecker getInstance() throws IOException&lt;/div&gt;&lt;div&gt;-JSONArray loadData() throws IOException&lt;/div&gt;&lt;div&gt;+boolean checkUser(String username,String password)&lt;/div&gt;&lt;div&gt;+boolean checkUserFloor(String floor)&lt;/div&gt;&lt;div&gt;+boolean checkUserRoom(String room)&lt;/div&gt;&lt;div&gt;+String getUserID()&lt;/div&gt;" style="text;strokeColor=none;fillColor=none;align=left;verticalAlign=top;spacingLeft=4;spacingRight=4;overflow=hidden;rotatable=0;points=[[0,0.5],[1,0.5]];portConstraint=eastwest;whiteSpace=wrap;html=1;" vertex="1" parent="-WlFVgDgevyx3NqKFWfm-134">
          <mxGeometry y="108" width="330" height="132" as="geometry" />
        </mxCell>
        <mxCell id="-WlFVgDgevyx3NqKFWfm-140" style="edgeStyle=orthogonalEdgeStyle;rounded=0;orthogonalLoop=1;jettySize=auto;html=1;entryX=0.002;entryY=0.243;entryDx=0;entryDy=0;entryPerimeter=0;" edge="1" parent="WIyWlLk6GJQsqaUBKTNV-1" source="-WlFVgDgevyx3NqKFWfm-134" target="-WlFVgDgevyx3NqKFWfm-24">
          <mxGeometry relative="1" as="geometry">
            <Array as="points">
              <mxPoint x="-280" y="550" />
              <mxPoint x="-280" y="808" />
            </Array>
          </mxGeometry>
        </mxCell>
        <mxCell id="-WlFVgDgevyx3NqKFWfm-141" value="Encryption" style="swimlane;fontStyle=1;align=center;verticalAlign=top;childLayout=stackLayout;horizontal=1;startSize=26;horizontalStack=0;resizeParent=1;resizeParentMax=0;resizeLast=0;collapsible=1;marginBottom=0;whiteSpace=wrap;html=1;" vertex="1" parent="WIyWlLk6GJQsqaUBKTNV-1">
          <mxGeometry x="2400" y="330" width="400" height="52" as="geometry" />
        </mxCell>
        <mxCell id="-WlFVgDgevyx3NqKFWfm-144" value="+ static String encrypt(String name, String[] rooms, String floor, int days)" style="text;strokeColor=none;fillColor=none;align=left;verticalAlign=top;spacingLeft=4;spacingRight=4;overflow=hidden;rotatable=0;points=[[0,0.5],[1,0.5]];portConstraint=eastwest;whiteSpace=wrap;html=1;" vertex="1" parent="-WlFVgDgevyx3NqKFWfm-141">
          <mxGeometry y="26" width="400" height="26" as="geometry" />
        </mxCell>
        <mxCell id="-WlFVgDgevyx3NqKFWfm-146" style="edgeStyle=orthogonalEdgeStyle;rounded=0;orthogonalLoop=1;jettySize=auto;html=1;entryX=0.648;entryY=0.997;entryDx=0;entryDy=0;entryPerimeter=0;" edge="1" parent="WIyWlLk6GJQsqaUBKTNV-1" source="-WlFVgDgevyx3NqKFWfm-141" target="-WlFVgDgevyx3NqKFWfm-77">
          <mxGeometry relative="1" as="geometry">
            <Array as="points">
              <mxPoint x="2235" y="356" />
              <mxPoint x="2235" y="180" />
            </Array>
          </mxGeometry>
        </mxCell>
        <mxCell id="-WlFVgDgevyx3NqKFWfm-147" style="edgeStyle=orthogonalEdgeStyle;rounded=0;orthogonalLoop=1;jettySize=auto;html=1;entryX=1.005;entryY=0.112;entryDx=0;entryDy=0;entryPerimeter=0;" edge="1" parent="WIyWlLk6GJQsqaUBKTNV-1" source="-WlFVgDgevyx3NqKFWfm-36" target="-WlFVgDgevyx3NqKFWfm-14">
          <mxGeometry relative="1" as="geometry" />
        </mxCell>
        <mxCell id="-WlFVgDgevyx3NqKFWfm-148" style="edgeStyle=orthogonalEdgeStyle;rounded=0;orthogonalLoop=1;jettySize=auto;html=1;entryX=1.007;entryY=0.118;entryDx=0;entryDy=0;entryPerimeter=0;" edge="1" parent="WIyWlLk6GJQsqaUBKTNV-1" source="-WlFVgDgevyx3NqKFWfm-39" target="-WlFVgDgevyx3NqKFWfm-14">
          <mxGeometry relative="1" as="geometry" />
        </mxCell>
        <mxCell id="-WlFVgDgevyx3NqKFWfm-149" style="edgeStyle=orthogonalEdgeStyle;rounded=0;orthogonalLoop=1;jettySize=auto;html=1;entryX=1.003;entryY=0.123;entryDx=0;entryDy=0;entryPerimeter=0;" edge="1" parent="WIyWlLk6GJQsqaUBKTNV-1" source="-WlFVgDgevyx3NqKFWfm-30" target="-WlFVgDgevyx3NqKFWfm-14">
          <mxGeometry relative="1" as="geometry" />
        </mxCell>
        <mxCell id="-WlFVgDgevyx3NqKFWfm-150" style="edgeStyle=orthogonalEdgeStyle;rounded=0;orthogonalLoop=1;jettySize=auto;html=1;entryX=1.003;entryY=0.779;entryDx=0;entryDy=0;entryPerimeter=0;" edge="1" parent="WIyWlLk6GJQsqaUBKTNV-1" source="-WlFVgDgevyx3NqKFWfm-44" target="-WlFVgDgevyx3NqKFWfm-31">
          <mxGeometry relative="1" as="geometry" />
        </mxCell>
        <mxCell id="-WlFVgDgevyx3NqKFWfm-151" style="edgeStyle=orthogonalEdgeStyle;rounded=0;orthogonalLoop=1;jettySize=auto;html=1;entryX=1;entryY=0.205;entryDx=0;entryDy=0;entryPerimeter=0;" edge="1" parent="WIyWlLk6GJQsqaUBKTNV-1" source="-WlFVgDgevyx3NqKFWfm-63" target="-WlFVgDgevyx3NqKFWfm-32">
          <mxGeometry relative="1" as="geometry" />
        </mxCell>
      </root>
    </mxGraphModel>
  </diagram>
</mxfile>
